<?xml version="1.0" encoding="UTF-8" standalone="no"?>
<svg
   xmlns:dc="http://purl.org/dc/elements/1.1/"
   xmlns:cc="http://creativecommons.org/ns#"
   xmlns:rdf="http://www.w3.org/1999/02/22-rdf-syntax-ns#"
   xmlns:svg="http://www.w3.org/2000/svg"
   xmlns="http://www.w3.org/2000/svg"
   xmlns:sodipodi="http://sodipodi.sourceforge.net/DTD/sodipodi-0.dtd"
   xmlns:inkscape="http://www.inkscape.org/namespaces/inkscape"
   width="210mm"
   height="297mm"
   viewBox="0 0 210 297"
   version="1.1"
   id="svg63232"
   inkscape:version="1.0.2 (e86c8708, 2021-01-15)"
   sodipodi:docname="electronic components lasercut.svg">
  <defs
     id="defs63226" />
  <sodipodi:namedview
     id="base"
     pagecolor="#ffffff"
     bordercolor="#666666"
     borderopacity="1.0"
     inkscape:pageopacity="0.0"
     inkscape:pageshadow="2"
     inkscape:zoom="0.8157061"
     inkscape:cx="415.74818"
     inkscape:cy="730.72365"
     inkscape:document-units="mm"
     inkscape:current-layer="layer1"
     inkscape:document-rotation="0"
     showgrid="true"
     inkscape:window-width="1252"
     inkscape:window-height="809"
     inkscape:window-x="1535"
     inkscape:window-y="31"
     inkscape:window-maximized="0">
    <inkscape:grid
       type="xygrid"
       id="grid63795"
       units="mm"
       spacingx="3.75"
       originx="0"
       originy="0"
       spacingy="3.75" />
  </sodipodi:namedview>
  <metadata
     id="metadata63229">
    <rdf:RDF>
      <cc:Work
         rdf:about="">
        <dc:format>image/svg+xml</dc:format>
        <dc:type
           rdf:resource="http://purl.org/dc/dcmitype/StillImage" />
        <dc:title></dc:title>
      </cc:Work>
    </rdf:RDF>
  </metadata>
  <g
     inkscape:label="Layer 1"
     inkscape:groupmode="layer"
     id="layer1">
    <g
       id="g63931"
       transform="translate(7.5,26.25)">
      <path
         id="path63799"
         style="color:#000000;font-style:normal;font-variant:normal;font-weight:normal;font-stretch:normal;font-size:medium;line-height:normal;font-family:sans-serif;font-variant-ligatures:normal;font-variant-position:normal;font-variant-caps:normal;font-variant-numeric:normal;font-variant-alternates:normal;font-variant-east-asian:normal;font-feature-settings:normal;font-variation-settings:normal;text-indent:0;text-align:start;text-decoration:none;text-decoration-line:none;text-decoration-style:solid;text-decoration-color:#000000;letter-spacing:normal;word-spacing:normal;text-transform:none;writing-mode:lr-tb;direction:ltr;text-orientation:mixed;dominant-baseline:auto;baseline-shift:baseline;text-anchor:start;white-space:normal;shape-padding:0;shape-margin:0;inline-size:0;clip-rule:nonzero;display:inline;overflow:visible;visibility:visible;opacity:1;isolation:auto;mix-blend-mode:normal;color-interpolation:sRGB;color-interpolation-filters:linearRGB;solid-color:#000000;solid-opacity:1;vector-effect:none;fill:#000000;fill-opacity:1;fill-rule:nonzero;stroke:none;stroke-width:3.77953;stroke-linecap:round;stroke-linejoin:miter;stroke-miterlimit:4;stroke-dasharray:none;stroke-dashoffset:0;stroke-opacity:1;color-rendering:auto;image-rendering:auto;shape-rendering:auto;text-rendering:auto;enable-background:accumulate;stop-color:#000000;stop-opacity:1"
         d="m 170.07812,425.19727 a 56.692912,56.692912 0 0 0 -56.6914,56.69335 56.692912,56.692912 0 0 0 0,0.41016 v 84.62891 h 18.89648 v 141.73242 a 9.4488189,9.4488189 0 0 0 9.44922,9.44727 9.4488189,9.4488189 0 0 0 9.44922,-9.44727 V 566.92969 h 37.79492 v 28.3457 a 9.4497638,9.4497638 0 0 0 2.76758,6.68164 l 25.57813,25.57813 v 20.52148 l -25.57813,25.57813 a 9.4497638,9.4497638 0 0 0 -2.76758,6.67968 v 28.34766 a 9.4488189,9.4488189 0 0 0 9.44922,9.44727 9.4488189,9.4488189 0 0 0 9.44727,-9.44727 v -24.43555 l 25.58007,-25.57812 a 9.4497638,9.4497638 0 0 0 2.76758,-6.67969 v -28.34766 a 9.4497638,9.4497638 0 0 0 -2.76758,-6.67968 l -25.58007,-25.57813 v -24.43359 h 18.89843 v -85.03907 a 56.692912,56.692912 0 0 0 -56.69336,-56.69335 z"
         transform="scale(0.26458333)" />
      <path
         style="fill:none;stroke:#ff0000;stroke-width:1;stroke-linecap:butt;stroke-linejoin:miter;stroke-miterlimit:4;stroke-dasharray:none;stroke-opacity:1"
         d="m 37.5,150 v -22.5 h 15 l -15,15"
         id="path63898" />
      <path
         style="fill:none;stroke:#ff0000;stroke-width:1;stroke-linecap:butt;stroke-linejoin:miter;stroke-miterlimit:4;stroke-dasharray:none;stroke-opacity:1"
         d="m 52.5,127.5 v 22.5 0"
         id="path63900" />
    </g>
    <g
       id="g63926">
      <path
         id="path63817"
         style="color:#000000;font-style:normal;font-variant:normal;font-weight:normal;font-stretch:normal;font-size:medium;line-height:normal;font-family:sans-serif;font-variant-ligatures:normal;font-variant-position:normal;font-variant-caps:normal;font-variant-numeric:normal;font-variant-alternates:normal;font-variant-east-asian:normal;font-feature-settings:normal;font-variation-settings:normal;text-indent:0;text-align:start;text-decoration:none;text-decoration-line:none;text-decoration-style:solid;text-decoration-color:#000000;letter-spacing:normal;word-spacing:normal;text-transform:none;writing-mode:lr-tb;direction:ltr;text-orientation:mixed;dominant-baseline:auto;baseline-shift:baseline;text-anchor:start;white-space:normal;shape-padding:0;shape-margin:0;inline-size:0;clip-rule:nonzero;display:inline;overflow:visible;visibility:visible;opacity:1;isolation:auto;mix-blend-mode:normal;color-interpolation:sRGB;color-interpolation-filters:linearRGB;solid-color:#000000;solid-opacity:1;vector-effect:none;fill:#000000;fill-opacity:1;fill-rule:nonzero;stroke:none;stroke-width:3.77953;stroke-linecap:round;stroke-linejoin:round;stroke-miterlimit:4;stroke-dasharray:none;stroke-dashoffset:0;stroke-opacity:1;color-rendering:auto;image-rendering:auto;shape-rendering:auto;text-rendering:auto;enable-background:accumulate;stop-color:#000000;stop-opacity:1"
         d="M 340.1582 538.58203 A 28.346457 28.346457 0 0 0 313.38672 557.61328 A 9.4488189 9.4488189 0 0 0 311.81055 557.48047 L 283.46484 557.48047 A 9.4497638 9.4497638 0 0 0 274.01562 566.92969 L 274.01562 651.96875 A 9.4488189 9.4488189 0 0 0 283.46484 661.41797 A 9.4488189 9.4488189 0 0 0 292.91406 651.96875 L 292.91406 576.37891 L 311.81055 576.37891 A 9.4488189 9.4488189 0 0 0 313.38672 576.24414 A 28.346457 28.346457 0 0 0 340.1582 595.27539 A 28.346457 28.346457 0 0 0 340.36133 595.27539 L 396.84961 595.27539 A 28.346457 28.346457 0 0 0 423.62305 576.24414 A 9.4488189 9.4488189 0 0 0 425.19727 576.37891 L 444.09375 576.37891 L 444.09375 651.96875 A 9.4488189 9.4488189 0 0 0 453.54297 661.41797 A 9.4488189 9.4488189 0 0 0 462.99219 651.96875 L 462.99219 566.92969 A 9.4497638 9.4497638 0 0 0 453.54297 557.48047 L 425.19727 557.48047 A 9.4488189 9.4488189 0 0 0 423.62109 557.61328 A 28.346457 28.346457 0 0 0 396.84961 538.58203 L 340.1582 538.58203 z "
         transform="scale(0.26458333)" />
      <path
         style="fill:none;stroke:#ff0000;stroke-width:1;stroke-linecap:butt;stroke-linejoin:miter;stroke-opacity:1;stroke-miterlimit:4;stroke-dasharray:none"
         d="m 89.999999,142.5 v 15"
         id="path63902" />
      <path
         style="fill:none;stroke:#ff0000;stroke-width:1;stroke-linecap:butt;stroke-linejoin:miter;stroke-opacity:1;stroke-miterlimit:4;stroke-dasharray:none"
         d="m 93.75,142.5 v 15"
         id="path63904" />
      <path
         style="fill:none;stroke:#ff0000;stroke-width:1;stroke-linecap:butt;stroke-linejoin:miter;stroke-opacity:1;stroke-miterlimit:4;stroke-dasharray:none"
         d="m 97.5,142.5 v 15"
         id="path63906" />
      <path
         style="fill:none;stroke:#ff0000;stroke-width:1;stroke-linecap:butt;stroke-linejoin:miter;stroke-opacity:1;stroke-miterlimit:4;stroke-dasharray:none"
         d="m 101.25,142.5 v 15"
         id="path63908" />
      <path
         style="fill:none;stroke:#ff0000;stroke-width:1;stroke-linecap:butt;stroke-linejoin:miter;stroke-opacity:1;stroke-miterlimit:4;stroke-dasharray:none"
         d="m 105,142.5 v 15"
         id="path63910" />
    </g>
    <g
       id="g63935"
       transform="translate(-23.750157,14.999973)">
      <path
         id="path63844"
         style="color:#000000;font-style:normal;font-variant:normal;font-weight:normal;font-stretch:normal;font-size:medium;line-height:normal;font-family:sans-serif;font-variant-ligatures:normal;font-variant-position:normal;font-variant-caps:normal;font-variant-numeric:normal;font-variant-alternates:normal;font-variant-east-asian:normal;font-feature-settings:normal;font-variation-settings:normal;text-indent:0;text-align:start;text-decoration:none;text-decoration-line:none;text-decoration-style:solid;text-decoration-color:#000000;letter-spacing:normal;word-spacing:normal;text-transform:none;writing-mode:lr-tb;direction:ltr;text-orientation:mixed;dominant-baseline:auto;baseline-shift:baseline;text-anchor:start;white-space:normal;shape-padding:0;shape-margin:0;inline-size:0;clip-rule:nonzero;display:inline;overflow:visible;visibility:visible;opacity:1;isolation:auto;mix-blend-mode:normal;color-interpolation:sRGB;color-interpolation-filters:linearRGB;solid-color:#000000;solid-opacity:1;vector-effect:none;fill:#000000;fill-opacity:1;fill-rule:nonzero;stroke:none;stroke-width:3.77953;stroke-linecap:round;stroke-linejoin:round;stroke-miterlimit:4;stroke-dasharray:none;stroke-dashoffset:0;stroke-opacity:1;color-rendering:auto;image-rendering:auto;shape-rendering:auto;text-rendering:auto;enable-background:accumulate;stop-color:#000000;stop-opacity:1"
         d="m 623.62109,472.44141 a 9.4488189,9.4488189 0 0 0 -9.44726,9.44921 v 28.34571 h -28.34766 c -10.46929,0 -18.89648,8.42914 -18.89648,18.89844 v 188.97461 c 0,10.46929 8.42719,18.89843 18.89648,18.89843 h 28.34766 v 28.34571 a 9.4488189,9.4488189 0 0 0 9.44726,9.44921 9.4488189,9.4488189 0 0 0 9.44922,-9.44921 v -28.34571 h 94.48828 v 28.34571 a 9.4488189,9.4488189 0 0 0 9.44922,9.44921 9.4488189,9.4488189 0 0 0 9.44922,-9.44921 v -28.34571 h 28.3457 c 10.4693,0 18.89844,-8.42914 18.89844,-18.89843 V 529.13477 c 0,-10.4693 -8.42914,-18.89844 -18.89844,-18.89844 h -28.3457 v -28.34571 a 9.4488189,9.4488189 0 0 0 -9.44922,-9.44921 9.4488189,9.4488189 0 0 0 -9.44922,9.44921 v 28.34571 h -94.48828 v -28.34571 a 9.4488189,9.4488189 0 0 0 -9.44922,-9.44921 z"
         transform="scale(0.26458333)" />
      <circle
         style="fill:none;stroke:#ff0000;stroke-width:1;stroke-linecap:round;stroke-linejoin:round;stroke-miterlimit:4;stroke-dasharray:none;stroke-opacity:1"
         id="path63912"
         cx="180"
         cy="165"
         r="22.5" />
    </g>
    <g
       id="g63941"
       transform="translate(-150,71.250001)">
      <path
         id="path63873"
         style="color:#000000;font-style:normal;font-variant:normal;font-weight:normal;font-stretch:normal;font-size:medium;line-height:normal;font-family:sans-serif;font-variant-ligatures:normal;font-variant-position:normal;font-variant-caps:normal;font-variant-numeric:normal;font-variant-alternates:normal;font-variant-east-asian:normal;font-feature-settings:normal;font-variation-settings:normal;text-indent:0;text-align:start;text-decoration:none;text-decoration-line:none;text-decoration-style:solid;text-decoration-color:#000000;letter-spacing:normal;word-spacing:normal;text-transform:none;writing-mode:lr-tb;direction:ltr;text-orientation:mixed;dominant-baseline:auto;baseline-shift:baseline;text-anchor:start;white-space:normal;shape-padding:0;shape-margin:0;inline-size:0;clip-rule:nonzero;display:inline;overflow:visible;visibility:visible;opacity:1;isolation:auto;mix-blend-mode:normal;color-interpolation:sRGB;color-interpolation-filters:linearRGB;solid-color:#000000;solid-opacity:1;vector-effect:none;fill:#000000;fill-opacity:1;fill-rule:nonzero;stroke:none;stroke-width:1;stroke-linecap:round;stroke-linejoin:round;stroke-miterlimit:4;stroke-dasharray:none;stroke-dashoffset:0;stroke-opacity:1;color-rendering:auto;image-rendering:auto;shape-rendering:auto;text-rendering:auto;enable-background:accumulate;stop-color:#000000;stop-opacity:1"
         d="m 239.9999,90 v 30.00023 h -9.99992 c -2.77,0 -5.00021,2.2297 -5.00021,4.9997 v 20.00033 c 0,2.77 2.23021,4.99969 5.00021,4.99969 v 15.00012 a 2.4999999,2.4999999 0 0 0 2.50011,2.5001 2.4999999,2.4999999 0 0 0 2.49958,-2.5001 v -15.00012 h 9.9999 v 15.00012 a 2.4999999,2.4999999 0 0 0 2.50013,2.5001 2.4999999,2.4999999 0 0 0 2.5001,-2.5001 v -15.00012 h 9.9999 v 15.00012 a 2.4999999,2.4999999 0 0 0 2.5001,2.5001 2.4999999,2.4999999 0 0 0 2.5001,-2.5001 v -15.00012 c 2.77,0 4.9997,-2.22969 4.9997,-4.99969 v -20.00033 c 0,-2.77 -2.2297,-4.9997 -4.9997,-4.9997 H 255 V 90 Z" />
      <path
         style="fill:none;stroke:#ff0000;stroke-width:1;stroke-linecap:butt;stroke-linejoin:miter;stroke-miterlimit:4;stroke-dasharray:none;stroke-opacity:1"
         d="M 243.75,89.999999 V 120"
         id="path63914" />
      <path
         style="fill:none;stroke:#ff0000;stroke-width:1;stroke-linecap:butt;stroke-linejoin:miter;stroke-miterlimit:4;stroke-dasharray:none;stroke-opacity:1"
         d="M 247.5,89.999999 V 120"
         id="path63916" />
      <path
         style="fill:none;stroke:#ff0000;stroke-width:1;stroke-linecap:butt;stroke-linejoin:miter;stroke-miterlimit:4;stroke-dasharray:none;stroke-opacity:1"
         d="M 251.25,89.999999 V 120"
         id="path63918" />
    </g>
  </g>
</svg>
